<svg width="258" height="54" viewBox="0 0 258 54" fill="none" xmlns="http://www.w3.org/2000/svg">
<mask id="mask0_682_480" style="mask-type:luminance" maskUnits="userSpaceOnUse" x="0" y="0" width="56" height="54">
<path d="M56 0H0V54H56V0Z" fill="white"/>
</mask>
<g mask="url(#mask0_682_480)">
<path d="M26.0549 0.0268972C16.9351 0.832376 9.38295 5.16872 4.42829 12.4291C2.792 14.8345 1.21292 18.575 0.606459 21.4769C0.137311 23.7389 0.04577 24.6216 0.04577 26.8836C0.0343274 30.1165 0.434819 32.5661 1.46466 35.5453C4.98898 45.7847 14.5779 53.0009 25.8832 53.9278C28.5036 54.1375 31.7418 53.8836 34.4652 53.2547C41.3994 51.6548 47.5327 47.484 51.4575 41.7132C53.7002 38.4141 55.2793 34.2212 55.8171 30.0834C56.0002 28.7262 56.0002 25.2395 55.8171 23.9044C55.4166 20.8259 54.4898 17.8137 53.1281 15.1324C51.755 12.4291 50.3018 10.454 48.0819 8.2472C45.679 5.86387 43.276 4.16463 40.3009 2.76332C37.6577 1.52751 34.9 0.688935 31.9478 0.247576C30.8264 0.082067 27.0618 -0.0613745 26.0549 0.0268972ZM23.2857 5.85283C30.7463 7.40862 35.701 14.2276 34.5796 21.4107C33.813 26.3319 30.3802 30.5027 25.6544 32.2681C23.7434 32.9854 21.4435 33.3495 19.647 33.2281C15.8366 32.9523 12.6327 31.5289 10.0809 28.969C8.94813 27.8214 8.26157 26.9056 7.5979 25.6146C4.85167 20.2742 5.81285 14.1394 10.0581 9.82505C12.2093 7.64033 14.9441 6.27212 18.2167 5.74249C19.3724 5.55491 22.1415 5.62112 23.2857 5.85283Z" fill="#32B04A"/>
<path d="M18.2281 8.63317C15.9967 9.05246 13.96 10.1007 12.3351 11.6676C9.29136 14.6135 8.26153 18.7624 9.58887 22.8228C10.8132 26.5524 13.9714 29.2446 18.2738 30.2046C19.0863 30.3921 21.6952 30.3921 22.5076 30.2046C27.0961 29.1784 30.2428 26.3096 31.4557 22.0505C31.7876 20.8808 31.8219 18.2989 31.5015 17.008C30.4946 12.7709 27.0732 9.54899 22.6792 8.66627C21.4549 8.42352 19.4066 8.40145 18.2281 8.63317Z" fill="#32B04A"/>
</g>
<path d="M66.024 21.66C65.416 21.66 64.8507 21.58 64.328 21.42C63.816 21.26 63.3467 21.02 62.92 20.7C62.504 20.3693 62.1307 19.964 61.8 19.484L62.984 18.124C63.5067 18.8707 64.008 19.388 64.488 19.676C64.968 19.964 65.5387 20.108 66.2 20.108C66.6053 20.108 66.9733 20.044 67.304 19.916C67.6347 19.788 67.896 19.612 68.088 19.388C68.28 19.164 68.376 18.908 68.376 18.62C68.376 18.428 68.344 18.2467 68.28 18.076C68.216 17.9053 68.1147 17.7507 67.976 17.612C67.848 17.4733 67.6773 17.3453 67.464 17.228C67.2613 17.1107 67.0213 17.0093 66.744 16.924C66.4667 16.828 66.1467 16.748 65.784 16.684C65.208 16.5667 64.7067 16.412 64.28 16.22C63.8533 16.028 63.496 15.788 63.208 15.5C62.92 15.212 62.7067 14.8867 62.568 14.524C62.4293 14.1507 62.36 13.7347 62.36 13.276C62.36 12.828 62.456 12.412 62.648 12.028C62.8507 11.644 63.1227 11.3133 63.464 11.036C63.816 10.748 64.2267 10.5293 64.696 10.38C65.1653 10.22 65.672 10.14 66.216 10.14C66.792 10.14 67.32 10.2147 67.8 10.364C68.28 10.5133 68.7067 10.7373 69.08 11.036C69.4533 11.324 69.7627 11.6813 70.008 12.108L68.792 13.308C68.5787 12.956 68.3387 12.6627 68.072 12.428C67.8053 12.1827 67.512 12.0013 67.192 11.884C66.872 11.756 66.5307 11.692 66.168 11.692C65.752 11.692 65.3893 11.756 65.08 11.884C64.7707 12.012 64.5253 12.1933 64.344 12.428C64.1733 12.652 64.088 12.9187 64.088 13.228C64.088 13.452 64.1307 13.66 64.216 13.852C64.3013 14.0333 64.4293 14.1987 64.6 14.348C64.7813 14.4867 65.0213 14.6147 65.32 14.732C65.6187 14.8387 65.976 14.9347 66.392 15.02C66.9787 15.148 67.5013 15.3133 67.96 15.516C68.4187 15.708 68.808 15.9373 69.128 16.204C69.448 16.4707 69.688 16.7693 69.848 17.1C70.0187 17.4307 70.104 17.788 70.104 18.172C70.104 18.8867 69.9387 19.5053 69.608 20.028C69.2773 20.5507 68.808 20.956 68.2 21.244C67.592 21.5213 66.8667 21.66 66.024 21.66ZM73.9924 18.108L73.8964 16.172L79.7684 10.3H82.0404L73.9924 18.108ZM72.5524 21.5V10.3H74.2804V21.5H72.5524ZM79.9764 21.5L75.6884 15.772L76.9684 14.668L82.1364 21.5H79.9764ZM84.2711 21.5V10.3H91.3271V11.964H85.9991V19.836H91.3271V21.5H84.2711ZM85.0551 16.588V14.924H90.4471V16.588H85.0551ZM94.0993 21.5V10.3H95.6513L102.499 19.468L102.243 19.612C102.201 19.3453 102.163 19.0573 102.131 18.748C102.099 18.428 102.067 18.092 102.035 17.74C102.014 17.3773 101.993 16.9987 101.971 16.604C101.961 16.1987 101.95 15.7773 101.939 15.34C101.929 14.9027 101.923 14.4493 101.923 13.98V10.3H103.651V21.5H102.067L95.3313 12.668L95.5073 12.444C95.5606 13.0947 95.6033 13.6493 95.6353 14.108C95.6779 14.556 95.7099 14.94 95.7313 15.26C95.7633 15.5693 95.7846 15.8253 95.7953 16.028C95.8059 16.22 95.8113 16.38 95.8113 16.508C95.8219 16.636 95.8273 16.748 95.8273 16.844V21.5H94.0993ZM108.915 21.5V11.964H105.779V10.3H113.875V11.964H110.643V21.5H108.915ZM115.59 21.5V19.9H117.398V11.9H115.59V10.3H120.934V11.9H119.126V19.9H120.934V21.5H115.59ZM123.646 21.5V10.3H125.198L132.046 19.468L131.79 19.612C131.747 19.3453 131.71 19.0573 131.678 18.748C131.646 18.428 131.614 18.092 131.582 17.74C131.561 17.3773 131.539 16.9987 131.518 16.604C131.507 16.1987 131.497 15.7773 131.486 15.34C131.475 14.9027 131.47 14.4493 131.47 13.98V10.3H133.198V21.5H131.614L124.878 12.668L125.054 12.444C125.107 13.0947 125.15 13.6493 125.182 14.108C125.225 14.556 125.257 14.94 125.278 15.26C125.31 15.5693 125.331 15.8253 125.342 16.028C125.353 16.22 125.358 16.38 125.358 16.508C125.369 16.636 125.374 16.748 125.374 16.844V21.5H123.646ZM141.022 21.66C140.232 21.66 139.502 21.516 138.83 21.228C138.168 20.94 137.587 20.54 137.086 20.028C136.595 19.5053 136.211 18.8973 135.934 18.204C135.667 17.5 135.534 16.732 135.534 15.9C135.534 15.068 135.667 14.3053 135.934 13.612C136.211 12.908 136.595 12.3 137.086 11.788C137.587 11.2653 138.168 10.86 138.83 10.572C139.502 10.284 140.232 10.14 141.022 10.14C141.811 10.14 142.536 10.284 143.198 10.572C143.87 10.86 144.451 11.2653 144.942 11.788C145.443 12.3107 145.827 12.924 146.094 13.628C146.371 14.3213 146.51 15.0787 146.51 15.9C146.51 16.7213 146.371 17.484 146.094 18.188C145.827 18.8813 145.443 19.4893 144.942 20.012C144.451 20.5347 143.87 20.94 143.198 21.228C142.536 21.516 141.811 21.66 141.022 21.66ZM141.022 19.98C141.566 19.98 142.062 19.8787 142.51 19.676C142.968 19.4733 143.363 19.1907 143.694 18.828C144.024 18.4547 144.28 18.0227 144.462 17.532C144.654 17.0307 144.75 16.4867 144.75 15.9C144.75 15.3133 144.654 14.7747 144.462 14.284C144.28 13.7827 144.024 13.3507 143.694 12.988C143.363 12.6147 142.968 12.3267 142.51 12.124C142.062 11.9213 141.566 11.82 141.022 11.82C140.478 11.82 139.976 11.9213 139.518 12.124C139.07 12.3267 138.675 12.6093 138.334 12.972C138.003 13.3347 137.747 13.7667 137.566 14.268C137.384 14.7587 137.294 15.3027 137.294 15.9C137.294 16.4867 137.384 17.0307 137.566 17.532C137.747 18.0333 138.003 18.4653 138.334 18.828C138.675 19.1907 139.07 19.4733 139.518 19.676C139.976 19.8787 140.478 19.98 141.022 19.98ZM153.334 21.5V10.3H155.062V21.5H153.334ZM154.102 16.732V15.068H159.878V16.732H154.102ZM154.102 11.964V10.3H160.598V11.964H154.102ZM162.543 21.5V19.9H164.351V11.9H162.543V10.3H167.887V11.9H166.079V19.9H167.887V21.5H162.543ZM170.599 21.5V10.3H172.151L178.999 19.468L178.743 19.612C178.701 19.3453 178.663 19.0573 178.631 18.748C178.599 18.428 178.567 18.092 178.535 17.74C178.514 17.3773 178.493 16.9987 178.471 16.604C178.461 16.1987 178.45 15.7773 178.439 15.34C178.429 14.9027 178.423 14.4493 178.423 13.98V10.3H180.151V21.5H178.567L171.831 12.668L172.007 12.444C172.061 13.0947 172.103 13.6493 172.135 14.108C172.178 14.556 172.21 14.94 172.231 15.26C172.263 15.5693 172.285 15.8253 172.295 16.028C172.306 16.22 172.311 16.38 172.311 16.508C172.322 16.636 172.327 16.748 172.327 16.844V21.5H170.599ZM182.119 21.5L186.455 10.3H188.215L192.519 21.5H190.679L188.119 14.748C188.087 14.6733 188.023 14.492 187.927 14.204C187.841 13.916 187.74 13.596 187.623 13.244C187.505 12.892 187.399 12.572 187.303 12.284C187.207 11.9853 187.143 11.7933 187.111 11.708L187.479 11.692C187.415 11.8733 187.335 12.1027 187.239 12.38C187.153 12.6573 187.057 12.9507 186.951 13.26C186.855 13.5693 186.759 13.8627 186.663 14.14C186.567 14.4067 186.487 14.6307 186.423 14.812L183.879 21.5H182.119ZM184.039 18.716L184.679 17.052H189.767L190.503 18.716H184.039ZM194.49 21.5V10.3H196.042L202.89 19.468L202.634 19.612C202.591 19.3453 202.554 19.0573 202.522 18.748C202.49 18.428 202.458 18.092 202.426 17.74C202.405 17.3773 202.383 16.9987 202.362 16.604C202.351 16.1987 202.341 15.7773 202.33 15.34C202.319 14.9027 202.314 14.4493 202.314 13.98V10.3H204.042V21.5H202.458L195.722 12.668L195.898 12.444C195.951 13.0947 195.994 13.6493 196.026 14.108C196.069 14.556 196.101 14.94 196.122 15.26C196.154 15.5693 196.175 15.8253 196.186 16.028C196.197 16.22 196.202 16.38 196.202 16.508C196.213 16.636 196.218 16.748 196.218 16.844V21.5H194.49ZM211.721 21.66C210.943 21.66 210.228 21.5213 209.577 21.244C208.927 20.9667 208.361 20.572 207.881 20.06C207.401 19.5373 207.028 18.924 206.761 18.22C206.505 17.516 206.377 16.7427 206.377 15.9C206.377 15.1 206.516 14.3587 206.793 13.676C207.081 12.9827 207.476 12.3747 207.977 11.852C208.479 11.3293 209.06 10.924 209.721 10.636C210.383 10.348 211.097 10.204 211.865 10.204C212.409 10.204 212.937 10.2893 213.449 10.46C213.972 10.62 214.441 10.8493 214.857 11.148C215.284 11.436 215.631 11.7667 215.897 12.14L214.745 13.34C214.436 13.0307 214.121 12.7747 213.801 12.572C213.492 12.3587 213.172 12.1987 212.841 12.092C212.521 11.9853 212.196 11.932 211.865 11.932C211.343 11.932 210.852 12.0333 210.393 12.236C209.945 12.428 209.551 12.7 209.209 13.052C208.879 13.404 208.617 13.8253 208.425 14.316C208.233 14.796 208.137 15.324 208.137 15.9C208.137 16.508 208.228 17.0627 208.409 17.564C208.601 18.0547 208.868 18.476 209.209 18.828C209.551 19.18 209.956 19.452 210.425 19.644C210.905 19.8253 211.433 19.916 212.009 19.916C212.361 19.916 212.708 19.868 213.049 19.772C213.391 19.676 213.711 19.5373 214.009 19.356C214.308 19.1747 214.58 18.9613 214.825 18.716L215.689 20.124C215.444 20.412 215.108 20.6733 214.681 20.908C214.265 21.1427 213.796 21.3293 213.273 21.468C212.761 21.596 212.244 21.66 211.721 21.66ZM218.037 21.5V10.3H225.093V11.964H219.765V19.836H225.093V21.5H218.037ZM218.821 16.588V14.924H224.213V16.588H218.821Z" fill="#32B04A"/>
<path d="M65.704 44.5V38.916L65.816 39.7L61.288 33.3H62.808L66.52 38.612L66.184 38.58L69.592 33.3H71.032L66.696 39.876L66.936 38.788V44.5H65.704ZM77.022 44.66C76.2327 44.66 75.502 44.5213 74.83 44.244C74.1687 43.956 73.5873 43.556 73.086 43.044C72.5953 42.532 72.2113 41.9293 71.934 41.236C71.6673 40.532 71.534 39.764 71.534 38.932C71.534 38.1 71.6673 37.3373 71.934 36.644C72.2113 35.94 72.5953 35.332 73.086 34.82C73.5873 34.2973 74.1687 33.8973 74.83 33.62C75.502 33.332 76.2327 33.188 77.022 33.188C77.822 33.188 78.5527 33.332 79.214 33.62C79.886 33.8973 80.4673 34.2973 80.958 34.82C81.4593 35.332 81.8433 35.94 82.11 36.644C82.3873 37.3373 82.526 38.1 82.526 38.932C82.526 39.7533 82.3873 40.516 82.11 41.22C81.8433 41.9133 81.4593 42.5213 80.958 43.044C80.4673 43.556 79.886 43.956 79.214 44.244C78.5527 44.5213 77.822 44.66 77.022 44.66ZM77.022 43.428C77.63 43.428 78.19 43.3213 78.702 43.108C79.2247 42.884 79.6727 42.5693 80.046 42.164C80.4193 41.7587 80.7073 41.284 80.91 40.74C81.1233 40.1853 81.23 39.5827 81.23 38.932C81.23 38.2707 81.1233 37.668 80.91 37.124C80.7073 36.5693 80.4193 36.0893 80.046 35.684C79.6727 35.2787 79.2247 34.964 78.702 34.74C78.19 34.516 77.63 34.404 77.022 34.404C76.414 34.404 75.8487 34.516 75.326 34.74C74.814 34.964 74.3713 35.2787 73.998 35.684C73.6247 36.0893 73.3367 36.5693 73.134 37.124C72.9313 37.668 72.83 38.2707 72.83 38.932C72.83 39.5827 72.9313 40.1853 73.134 40.74C73.3367 41.284 73.6247 41.7587 73.998 42.164C74.3713 42.5693 74.814 42.884 75.326 43.108C75.8487 43.3213 76.414 43.428 77.022 43.428ZM89.2645 44.612C88.4218 44.612 87.6698 44.4253 87.0085 44.052C86.3472 43.668 85.8245 43.1453 85.4405 42.484C85.0672 41.812 84.8805 41.0547 84.8805 40.212V33.3H86.1285V40.068C86.1285 40.6973 86.2672 41.2627 86.5445 41.764C86.8218 42.2653 87.1952 42.66 87.6645 42.948C88.1445 43.236 88.6778 43.38 89.2645 43.38C89.8832 43.38 90.4325 43.236 90.9125 42.948C91.4032 42.66 91.7872 42.2653 92.0645 41.764C92.3418 41.2627 92.4805 40.6973 92.4805 40.068V33.3H93.6805V40.212C93.6805 41.0547 93.4885 41.812 93.1045 42.484C92.7312 43.1453 92.2085 43.668 91.5365 44.052C90.8752 44.4253 90.1178 44.612 89.2645 44.612ZM96.9136 44.5V33.3H101.298C101.948 33.3 102.535 33.4547 103.058 33.764C103.591 34.0627 104.012 34.4733 104.322 34.996C104.631 35.5187 104.786 36.1107 104.786 36.772C104.786 37.3907 104.636 37.9507 104.338 38.452C104.039 38.9533 103.634 39.3533 103.122 39.652C102.61 39.94 102.034 40.084 101.394 40.084H98.1616V44.5H96.9136ZM103.746 44.5L100.93 39.572L102.13 39.156L105.234 44.5H103.746ZM98.1616 38.868H101.506C101.9 38.868 102.247 38.7773 102.546 38.596C102.844 38.4147 103.079 38.1693 103.25 37.86C103.42 37.54 103.506 37.1773 103.506 36.772C103.506 36.3347 103.404 35.9453 103.202 35.604C102.999 35.2627 102.716 34.996 102.354 34.804C102.002 34.612 101.596 34.516 101.138 34.516H98.1616V38.868ZM116.921 44.66C116.099 44.66 115.337 44.516 114.633 44.228C113.929 43.94 113.31 43.54 112.777 43.028C112.243 42.516 111.827 41.9133 111.529 41.22C111.241 40.516 111.097 39.7533 111.097 38.932C111.097 38.1107 111.241 37.3533 111.529 36.66C111.827 35.956 112.233 35.348 112.745 34.836C113.267 34.324 113.875 33.9293 114.569 33.652C115.273 33.364 116.025 33.22 116.825 33.22C117.39 33.22 117.945 33.3 118.489 33.46C119.043 33.62 119.545 33.844 119.993 34.132C120.441 34.42 120.803 34.7453 121.081 35.108L120.249 35.956C119.95 35.6467 119.614 35.38 119.241 35.156C118.867 34.932 118.473 34.756 118.057 34.628C117.651 34.5 117.246 34.436 116.841 34.436C116.211 34.436 115.625 34.548 115.081 34.772C114.547 34.996 114.078 35.3107 113.673 35.716C113.267 36.1107 112.953 36.5853 112.729 37.14C112.505 37.684 112.393 38.2813 112.393 38.932C112.393 39.5613 112.505 40.1533 112.729 40.708C112.963 41.252 113.289 41.732 113.705 42.148C114.131 42.5533 114.622 42.868 115.177 43.092C115.731 43.316 116.329 43.428 116.969 43.428C117.47 43.428 117.939 43.3533 118.377 43.204C118.825 43.0547 119.214 42.8467 119.545 42.58C119.875 42.3027 120.131 41.9827 120.312 41.62C120.494 41.2573 120.585 40.868 120.585 40.452V39.892L120.841 40.212H116.905V38.98H121.833C121.843 39.0653 121.854 39.1667 121.865 39.284C121.875 39.3907 121.881 39.5027 121.881 39.62C121.891 39.7267 121.897 39.828 121.897 39.924C121.897 40.6173 121.769 41.2573 121.513 41.844C121.257 42.42 120.899 42.9213 120.441 43.348C119.993 43.764 119.47 44.0893 118.873 44.324C118.275 44.548 117.625 44.66 116.921 44.66ZM124.179 44.5V33.3H128.563C129.214 33.3 129.801 33.4547 130.323 33.764C130.857 34.0627 131.278 34.4733 131.587 34.996C131.897 35.5187 132.051 36.1107 132.051 36.772C132.051 37.3907 131.902 37.9507 131.603 38.452C131.305 38.9533 130.899 39.3533 130.387 39.652C129.875 39.94 129.299 40.084 128.659 40.084H125.427V44.5H124.179ZM131.011 44.5L128.195 39.572L129.395 39.156L132.499 44.5H131.011ZM125.427 38.868H128.771C129.166 38.868 129.513 38.7773 129.811 38.596C130.11 38.4147 130.345 38.1693 130.515 37.86C130.686 37.54 130.771 37.1773 130.771 36.772C130.771 36.3347 130.67 35.9453 130.467 35.604C130.265 35.2627 129.982 34.996 129.619 34.804C129.267 34.612 128.862 34.516 128.403 34.516H125.427V38.868ZM139.21 44.66C138.42 44.66 137.69 44.5213 137.018 44.244C136.356 43.956 135.775 43.556 135.274 43.044C134.783 42.532 134.399 41.9293 134.122 41.236C133.855 40.532 133.722 39.764 133.722 38.932C133.722 38.1 133.855 37.3373 134.122 36.644C134.399 35.94 134.783 35.332 135.274 34.82C135.775 34.2973 136.356 33.8973 137.018 33.62C137.69 33.332 138.42 33.188 139.21 33.188C140.01 33.188 140.74 33.332 141.402 33.62C142.074 33.8973 142.655 34.2973 143.146 34.82C143.647 35.332 144.031 35.94 144.298 36.644C144.575 37.3373 144.714 38.1 144.714 38.932C144.714 39.7533 144.575 40.516 144.298 41.22C144.031 41.9133 143.647 42.5213 143.146 43.044C142.655 43.556 142.074 43.956 141.402 44.244C140.74 44.5213 140.01 44.66 139.21 44.66ZM139.21 43.428C139.818 43.428 140.378 43.3213 140.89 43.108C141.412 42.884 141.86 42.5693 142.234 42.164C142.607 41.7587 142.895 41.284 143.098 40.74C143.311 40.1853 143.418 39.5827 143.418 38.932C143.418 38.2707 143.311 37.668 143.098 37.124C142.895 36.5693 142.607 36.0893 142.234 35.684C141.86 35.2787 141.412 34.964 140.89 34.74C140.378 34.516 139.818 34.404 139.21 34.404C138.602 34.404 138.036 34.516 137.514 34.74C137.002 34.964 136.559 35.2787 136.186 35.684C135.812 36.0893 135.524 36.5693 135.322 37.124C135.119 37.668 135.018 38.2707 135.018 38.932C135.018 39.5827 135.119 40.1853 135.322 40.74C135.524 41.284 135.812 41.7587 136.186 42.164C136.559 42.5693 137.002 42.884 137.514 43.108C138.036 43.3213 138.602 43.428 139.21 43.428ZM149.198 44.5L145.822 33.3H147.166L149.326 40.692C149.411 40.948 149.481 41.1933 149.534 41.428C149.598 41.652 149.651 41.8707 149.694 42.084C149.737 42.2867 149.779 42.4947 149.822 42.708C149.865 42.9107 149.907 43.124 149.95 43.348L149.678 43.332C149.817 42.8413 149.929 42.452 150.014 42.164C150.11 41.876 150.201 41.62 150.286 41.396C150.371 41.172 150.467 40.916 150.574 40.628L152.462 35.876H153.63L155.534 40.676C155.662 40.9747 155.774 41.2573 155.87 41.524C155.966 41.7907 156.057 42.0627 156.142 42.34C156.238 42.6173 156.329 42.9267 156.414 43.268L156.158 43.316C156.211 43.0493 156.254 42.8307 156.286 42.66C156.318 42.4893 156.35 42.34 156.382 42.212C156.414 42.0733 156.446 41.94 156.478 41.812C156.51 41.6733 156.553 41.5133 156.606 41.332C156.659 41.14 156.729 40.9 156.814 40.612L158.974 33.3H160.318L156.91 44.5H155.87L152.846 37.3L153.134 37.348L150.222 44.5H149.198ZM164.539 44.5V34.516H161.339V33.3H169.115V34.516H165.787V44.5H164.539ZM178.714 44.5V33.3H179.962V44.5H178.714ZM171.226 44.5V33.3H172.474V44.5H171.226ZM171.834 39.524V38.308H179.242V39.524H171.834ZM187.742 44.5V33.3H192.174C192.76 33.3 193.288 33.444 193.758 33.732C194.227 34.02 194.6 34.42 194.878 34.932C195.155 35.4333 195.294 35.9987 195.294 36.628C195.294 37.2893 195.155 37.8813 194.878 38.404C194.6 38.916 194.227 39.3267 193.758 39.636C193.288 39.9347 192.76 40.084 192.174 40.084H188.99V44.5H187.742ZM188.99 38.868H192.238C192.568 38.868 192.862 38.772 193.118 38.58C193.384 38.3773 193.598 38.1107 193.758 37.78C193.918 37.4387 193.998 37.0493 193.998 36.612C193.998 36.2173 193.918 35.8653 193.758 35.556C193.598 35.236 193.384 34.9853 193.118 34.804C192.862 34.612 192.568 34.516 192.238 34.516H188.99V38.868ZM195.4 44.5L199.688 33.3H201.112L205.368 44.5H204.008L201.272 37.236C201.197 37.0333 201.112 36.7987 201.016 36.532C200.931 36.2547 200.835 35.972 200.728 35.684C200.632 35.3853 200.536 35.0973 200.44 34.82C200.355 34.5427 200.275 34.2973 200.2 34.084H200.52C200.435 34.3507 200.344 34.6227 200.248 34.9C200.163 35.1667 200.072 35.4387 199.976 35.716C199.88 35.9827 199.784 36.2493 199.688 36.516C199.592 36.7827 199.496 37.0493 199.4 37.316L196.68 44.5H195.4ZM197.224 41.412L197.688 40.196H202.984L203.496 41.412H197.224ZM207.414 44.5V33.3H211.798C212.448 33.3 213.035 33.4547 213.558 33.764C214.091 34.0627 214.512 34.4733 214.822 34.996C215.131 35.5187 215.286 36.1107 215.286 36.772C215.286 37.3907 215.136 37.9507 214.838 38.452C214.539 38.9533 214.134 39.3533 213.622 39.652C213.11 39.94 212.534 40.084 211.894 40.084H208.662V44.5H207.414ZM214.246 44.5L211.43 39.572L212.63 39.156L215.734 44.5H214.246ZM208.662 38.868H212.006C212.4 38.868 212.747 38.7773 213.046 38.596C213.344 38.4147 213.579 38.1693 213.75 37.86C213.92 37.54 214.006 37.1773 214.006 36.772C214.006 36.3347 213.904 35.9453 213.702 35.604C213.499 35.2627 213.216 34.996 212.854 34.804C212.502 34.612 212.096 34.516 211.638 34.516H208.662V38.868ZM219.696 44.5V34.516H216.496V33.3H224.272V34.516H220.944V44.5H219.696ZM226.382 44.5V33.3H227.518L234.846 42.996L234.622 43.284C234.59 43.1133 234.564 42.8573 234.542 42.516C234.532 42.1747 234.516 41.7907 234.494 41.364C234.484 40.9267 234.473 40.4733 234.462 40.004C234.452 39.5347 234.441 39.076 234.43 38.628C234.43 38.18 234.43 37.7747 234.43 37.412V33.3H235.678V44.5H234.51L227.214 34.932L227.406 34.596C227.438 35.0227 227.465 35.444 227.486 35.86C227.518 36.276 227.54 36.676 227.55 37.06C227.572 37.444 227.588 37.796 227.598 38.116C227.609 38.436 227.614 38.708 227.614 38.932C227.625 39.156 227.63 39.316 227.63 39.412V44.5H226.382ZM238.976 44.5V33.3H245.76V34.516H240.224V43.284H245.728V44.5H238.976ZM239.552 39.348V38.132H244.864V39.348H239.552ZM248.554 44.5V33.3H252.938C253.589 33.3 254.176 33.4547 254.698 33.764C255.232 34.0627 255.653 34.4733 255.962 34.996C256.272 35.5187 256.426 36.1107 256.426 36.772C256.426 37.3907 256.277 37.9507 255.978 38.452C255.68 38.9533 255.274 39.3533 254.762 39.652C254.25 39.94 253.674 40.084 253.034 40.084H249.802V44.5H248.554ZM255.386 44.5L252.57 39.572L253.77 39.156L256.874 44.5H255.386ZM249.802 38.868H253.146C253.541 38.868 253.888 38.7773 254.186 38.596C254.485 38.4147 254.72 38.1693 254.89 37.86C255.061 37.54 255.146 37.1773 255.146 36.772C255.146 36.3347 255.045 35.9453 254.842 35.604C254.64 35.2627 254.357 34.996 253.994 34.804C253.642 34.612 253.237 34.516 252.778 34.516H249.802V38.868Z" fill="black"/>
</svg>
